<svg version="1.2" xmlns="http://www.w3.org/2000/svg" viewBox="0 0 360 360" width="360" height="360"><style>.a{fill:#00df5e}</style><path fill-rule="evenodd" class="a" d="m0 0h360v360h-360zm244 132.5c-15 4.3-25.4 12.5-31.1 24.8-3.3 7-3.4 7.6-3.3 19.3 0 11.7 0.1 12.3 3.6 19.6 6.6 13.9 14.9 20.4 40.8 32.3 17.4 8 22.4 11 25.1 15.2 2.6 3.8 2.5 11.6-0.1 15.8-4 6.4-16.7 9.9-27.1 7.5-7.7-1.8-12.8-5-19.8-12.6l-6.1-6.7-11.9 6.9c-17 9.7-15.8 8.5-12.8 13.6 6.7 11.4 19.3 21.4 33.4 26.3 6.7 2.4 9.8 2.8 22.3 3.2 11.5 0.4 15.9 0.1 21-1.2 19.8-5.1 33.1-17.4 37-34.4 1.7-7.1 0.7-20.8-2-28.6-4.9-14.3-12.8-20.9-42.6-35.5-13.9-6.8-22.9-11.9-24.2-13.5-3.2-4-3.8-10.6-1.6-15.1 2.5-4.9 6.2-7.5 11.5-8.1 7.3-0.8 12 1.1 18 7.2 2.9 3 5.9 5.5 6.6 5.5 1.2 0 7.1-3.7 19.1-11.8 7.2-4.9 7.2-4.9-0.6-14-5.7-6.8-13-11.7-21.2-14.3-8.9-2.8-26.4-3.5-34-1.4zm-54 0.5h-127v30h46v65.9c0 36.3 0.4 66.2 0.8 66.5 1.7 1 21.1 1.8 27.5 1.2l6.7-0.8v-132.8h46z"/></svg>